<svg xmlns="http://www.w3.org/2000/svg" width="152.508" height="113.763" viewBox="0 0 152.508 113.763"><defs><style>.a{fill:#aa5f55;}.b{fill:#d47f55;}.c,.d{fill:#7f5f55;}.c{opacity:0.31;mix-blend-mode:multiply;isolation:isolate;}.e{fill:#d4df55;}</style></defs><g transform="translate(-396.545 -744.7)"><path class="a" d="M461.031,744.7,434,816.506h53.334Z" transform="translate(8.033)"/><path class="b" d="M434.145,804.791l52.17-5.465,4.563,11.133L430.5,816.943Z" transform="translate(7.282 11.715)"/><path class="a" d="M432.145,815.012l60.376-6.68,2.184,6.68-71.868,16.161Z" transform="translate(5.638 13.647)"/><path class="b" d="M418.307,830.925l77.37-17.093,5.391,19.1Z" transform="translate(4.667 14.826)"/><path class="c" d="M456.258,744.7l15.321,67.306L479.312,844l12.53-.091-6.488-21.931-4.563-10.938Z" transform="translate(12.806)"/><path class="a" d="M437.8,828.4,396.545,817.44V828.4l5.5,5.226,24.023,9.236h94.3L549.054,828.4v-5.2l-21.6.4-19.4,4.662-8.907.146Z" transform="translate(0 15.6)"/><path class="d" d="M396.545,818.214l34.286,9.047,6.952-13.428Z" transform="translate(0 14.826)"/><path class="d" d="M481.985,813.833l4.34,15.252,3.405-.056,20.173-4.742h20.828l-34.5-8.389Z" transform="translate(18.323 14.826)"/><path class="e" d="M469.428,805.322c6.888-1.277,13.865,5.934,12.361,12.775s-10.865,10.461-16.58,6.411S458.716,807.309,469.428,805.322Z" transform="translate(13.842 12.969)"/><path d="M463.132,811.385l8.3-1.922-3.732,5.855,5.886-1.513-3.483,5.235,4.117-.39c-.959,4.846-7.677,7.39-11.605,4.4S459.174,812.3,463.132,811.385Z" transform="translate(13.588 13.889)"/></g></svg>