<svg xmlns="http://www.w3.org/2000/svg" width="71.657" height="55.749" viewBox="0 0 71.657 55.749"><defs><style>.a{fill:#7f9f55;}.b{fill:#557f55;}.c{fill:#94af6e;opacity:0.48;mix-blend-mode:multiply;isolation:isolate;}.d{fill:#bdda9f;}.e{fill:#657f3b;}</style></defs><g transform="translate(-734.945 -720.974)"><path class="a" d="M769.633,774.184l7.564-8-.951-4,5.438-7.479-2.285-7.687,3.609-7.687,8.5-8.254,18.642,10.747-5.969,1.567-3.588-4-5.012.147,6.713,11.91-.55,5.416,2.251,3.367-1.782,6.375,6.483,7.175Z" transform="translate(-18.322 -10.106)"/><path class="b" d="M764.132,821.885l-4.914,5.369,47.09.083-3.027-5.947Z" transform="translate(-12.821 -57.808)"/><path class="a" d="M747.714,831.726l-7.367-1.448-5.4,2.621,4.867,5.977,35.7-3.737Z" transform="translate(0 -62.503)"/><path class="a" d="M766.464,832.426l48.793,7.276,7.993-4.989-2.285-2.759-4.385-.773-6.445,1.277-23.014-.208Z" transform="translate(-16.649 -62.98)"/><path class="c" d="M823.685,806.008c-2.086,2.382-3.669,4.764-5.754,7.146,1.63,1.862,4.769,3.724,6.4,5.587,2.322-2.053,3.136-4.105,5.458-6.158C827.854,810.483,825.417,808.383,823.685,806.008Z" transform="translate(-43.833 -49.683)"/><path class="d" d="M822.328,807.008c-1.957,2.235-3.442,4.469-5.4,6.7,1.53,1.747,4.474,3.494,6,5.241,2.179-1.926,2.942-3.851,5.121-5.777A75.2,75.2,0,0,1,822.328,807.008Z" transform="translate(-43.305 -50.212)"/><path class="e" d="M827.683,747.4l-6.757-1.167,6.757,12.694-1.068,6.42,1.981,2.8-1.254,6.755,8.534,6.785-6.573-7.078,1.782-6.375-2.251-3.367.55-5.416-6.713-11.91Z" transform="translate(-45.416 -18.109)"/></g></svg>