<svg xmlns="http://www.w3.org/2000/svg" width="155.001" height="114.308" viewBox="0 0 155.001 114.308"><defs><style>.a{fill:#4d907a;}.b{fill:#407f68;}.c{fill:#555f55;}.d{fill:#c0dcc0;}.e{fill:#3a6c5c;}</style></defs><g transform="translate(-912.073 -726.608)"><path class="a" d="M967.578,791.365l10.366-45.087,33.538-19.67,25,16.28,6.708,21.089L1027.338,774.8l-11.586-10.157,9.147-10.434-.61,9.772,10.366-4.99L1024.289,747.5l-18.9,11.489,12.2,32.378,9.147,19.708-67.077,1.444Z" transform="translate(-3.656)"/><path class="b" d="M1028.515,755.714l-2.5,11.454,15.855-6.2-13.009-14.732-22.156,12.2s13.807,54.047,13.814,54.24,9.9-.028,9.9-.028L1009,760.495l18.9-11.489,10.366,11.489-10.366,4.991Z" transform="translate(-7.272 -1.508)"/><path class="c" d="M955.995,818.564l-43.922-13.257,29.27,41.657,82.734-29.785Z" transform="translate(0 -6.048)"/><path class="c" d="M979.825,835.595l48.55-17.706,27.44-.413,16.464-12.043L1048.5,845.875Z" transform="translate(-5.206 -6.057)"/><path class="d" d="M1031.034,806.378l6.615-17.466,1.813,11.014,8.287-14.854-.418,8.359,10.017-9.286-9.554,13.356,9.737,1.2-15.65,4.858,9.875,1.8-17.46,4.267,9.037,1.661-19.657,4.3-2-13.018c.655,3.286,2.929,4.677,3.584,7.963,1.43-6.4,1.239-10.909,2.668-17.31l1.051,14.238L1032.163,795A106.175,106.175,0,0,0,1031.034,806.378Z" transform="translate(-8.422 -4.422)"/><path class="e" d="M984.6,810.361,972.737,806.4s5.793-4.268,5.933-4.574-5.933-4.268-5.933-4.268l3.939-3.659-1.83-3.658,4.434-8.232,1.969,7.927,4.878-1.525-3.354,7.775h3.354l-2,5.311,4.991.33Z" transform="translate(-4.662 -4.257)"/><path class="e" d="M1000.809,792.56l-3.658-7.124,3.658,1.331-1.829-5.488h5.323l-1.665-6.1,3.354,1.256,3.049-3.886v5.679l3.049.61-4.268,2.439,4.268,4.157-6.1,1.941,2.744,2.744Z" transform="translate(-6.538 -3.531)"/><path class="e" d="M987.724,769.177h-6.115l3.345-3.058-2.109-1.515,2.126-2.439-3.363-3.049,3.057-2.134v-3.049l3.058,3.659,3.964-.915-3.354,4.878h4.573l-3.108,2.439,4.328,2.125Z" transform="translate(-5.344 -2.1)"/></g></svg>