<svg xmlns="http://www.w3.org/2000/svg" xmlns:xlink="http://www.w3.org/1999/xlink" width="160.681" height="113.006" viewBox="0 0 160.681 113.006"><defs><style>.a{fill:none;}.b{fill:#5f4780;}.c{fill:#7f5faa;isolation:isolate;}.d{fill:#614f84;}.e{clip-path:url(#a);}.f{fill:#d4df55;}</style><clipPath id="a"><path class="a" d="M659.836,830.739,635.816,755.39,614.01,738.658l5.681,14.871-26.88,73.287,30.921,10.5Z" transform="translate(-592.811 -738.658)"/></clipPath></defs><g transform="translate(-549.87 -738.658)"><ellipse class="b" cx="32.482" cy="6.694" rx="32.482" ry="6.694" transform="translate(595.521 828.526)"/><path class="c" d="M710.552,833.047,700.539,822.5l-23.554-2.618-25.217,6.053-42.195,12.177-24.867,9.5-21.2-.988L549.87,834.669l12.484-12.9,23.506,1.1L654.336,840.2l21.022,7.584,19.817-1.953Z" transform="translate(0 3.879)"/><path class="b" d="M625.5,817.736q2.076,0,4.085.079a3.762,3.762,0,0,0,.5,1.181,4.411,4.411,0,0,0,.537,3.607l-.748-.551c-2.223-1.647-4.18,3.3-1.953,4.953q1.517,1.124,3.042,2.23a1.871,1.871,0,0,0,.979.872c.167.062-2.391,1.655-2.224,1.717,3.5,2.47,7.4,3.984,11.125,5.575-5.14.987-8.823.741-15.341.741-18.445,0-33.4-4.567-33.4-10.2S607.056,817.736,625.5,817.736Z" transform="translate(2.017 3.776)"/><path class="b" d="M657.06,822.616l16.108-2.73,22.186,2.466-43.41,5.938L629.8,830.02Z" transform="translate(3.817 3.879)"/><path class="c" d="M659.869,830.739,635.85,755.39l-21.807-16.732,5.681,14.871L592.1,829.884l40.044,6.384Z" transform="translate(2.017 0)"/><path class="d" d="M613.044,738.658,634.85,755.39l24.019,75.349L646.882,833.1l-14.534-74.746Z" transform="translate(3.017 0)"/><g transform="translate(594.861 738.658)"><g class="e" transform="translate(0)"><path class="f" d="M597.039,758.678c15.737,8.427,32.445,14.7,49.127,20.957,4.735,1.776,9.465,3.56,14.169,5.416a2.1,2.1,0,0,1,1.423,2.507,2.052,2.052,0,0,1-2.507,1.424c-16.834-6.624-34.034-12.359-50.462-19.982a152.355,152.355,0,0,1-13.593-7.17A1.827,1.827,0,0,1,597.039,758.678Z" transform="translate(-592.74 -737.714)"/><path class="f" d="M586.507,772.484a2,2,0,0,1,2.677-.7c18.2,8.19,36.972,15.069,55.8,21.66q7.9,2.765,15.808,5.5c2.78.966,1.583,5.413-1.223,4.436-19.044-6.629-38.139-13.148-56.714-21.025-5.282-2.239-10.5-4.658-15.643-7.189A1.977,1.977,0,0,1,586.507,772.484Z" transform="translate(-593.124 -737.088)"/><path class="f" d="M585.528,790.592A1.862,1.862,0,0,1,587.8,789.3c19.462,7.532,39.7,12.756,59.824,18.166,5.624,1.511,11.243,3.045,16.838,4.66,2.6.749,1.491,4.816-1.118,4.057-20.042-5.824-40.427-10.52-60.218-17.191-5.508-1.857-10.95-3.873-16.309-6.125A1.915,1.915,0,0,1,585.528,790.592Z" transform="translate(-593.162 -736.244)"/><path class="f" d="M567.576,800.651c15.135,3.843,30.063,8.4,45,12.924,7.124,2.157,14.22,4.416,21.446,6.214,7.089,1.764,14.245,3.239,21.349,4.94a148.476,148.476,0,0,1,22.981,7.148,2.183,2.183,0,0,1,1.475,2.6,2.123,2.123,0,0,1-2.6,1.474c-13.32-5.561-27.612-8.041-41.6-11.306-14.836-3.463-29.355-8.322-43.928-12.74-8.376-2.539-16.757-5.072-25.172-7.48A1.958,1.958,0,0,1,567.576,800.651Z" transform="translate(-594.132 -735.701)"/><path class="f" d="M591.361,743.387c20.092,6.134,39.491,14.376,58.789,22.615q8.238,3.517,16.473,7.044a2.066,2.066,0,0,1,.737,2.811,2.109,2.109,0,0,1-2.81.737c-19.1-8.092-38.116-16.376-57.578-23.565q-8.278-3.059-16.659-5.837C587.923,746.394,588.914,742.641,591.361,743.387Z" transform="translate(-592.996 -738.437)"/></g></g></g></svg>