<svg xmlns="http://www.w3.org/2000/svg" width="161.141" height="112.265" viewBox="0 0 161.141 112.265"><defs><style>.a{fill:#557faa;}.b{fill:#555f55;}.c{fill:#2a3f55;}.d{fill:#d49f55;}.e{fill:#ffbf55;}.f{fill:#79b;}.g{fill:#2a5faa;}</style></defs><g transform="translate(-214.995 -743.649)"><g transform="translate(214.995 743.649)"><path class="a" d="M286.876,755.547l-19.292,51.309,53.15,9.791-8.659-46.971,11.811-8.8,11.857,11.771V760.88l-15.009-17.23L301.1,746.666Z" transform="translate(-208.381 -743.649)"/><path class="b" d="M271.775,813.6l-56.78-20.722,11.819,21.156,22.994,17.847,87,17.847h39.326l-9.266-12.619-35.142-10.948,2.814,9.84-65.018-13.306Z" transform="translate(-214.995 -737.459)"/><path class="c" d="M221.583,798.073l8.273,11.731,22.122,15.759,84.772,18.746,32.342,2.045-6.316-8.18L330.9,825.5l-59.952-12.561Z" transform="translate(-214.166 -736.806)"/><path class="c" d="M264.882,815.585l-5.125,5.1,87.251,19.565-15.12-10.79h-4.03l1.054,3.685-65.018-13.306Z" transform="translate(-209.366 -734.604)"/><path class="d" d="M302.232,816.255c-4.35-2.734-9.135-4.657-13.752-6.888-3.029-1.79-6.027-3.641-9.081-5.381-.048-.027-.095-.039-.142-.063-.343-.229-.686-.458-1.031-.686a33.487,33.487,0,0,0-3.583-2.131c-.171,0-.551-.038-.549-.038-.589-.1-1.185-.142-1.775-.235-.895-.142-1.78-.316-2.664-.491a4.753,4.753,0,0,1-1.084-.016,5.346,5.346,0,0,1-.889-.2,3.816,3.816,0,0,0,.727,4.05,5.913,5.913,0,0,0,2.441,1.369,45.732,45.732,0,0,0,7.745,6.372,64.759,64.759,0,0,0,6.141,3.614,24.708,24.708,0,0,0,6.723,2.6,3.229,3.229,0,0,0,.968.016,45.3,45.3,0,0,0,7.536,3.5C303.212,822.769,304.971,817.977,302.232,816.255Z" transform="translate(-208.404 -736.548)"/><path class="e" d="M268.107,799.6l33.517,18.771-33.517-16.639-4.674,20.115,65.018,13.627-7.193-25.862Z" transform="translate(-208.904 -736.614)"/><path class="f" d="M333.589,760.88l-15.009-17.23-19.633,3.017-14.225,8.881,18-5.538,14.27-1.374Z" transform="translate(-206.227 -743.649)"/><path class="g" d="M331.135,771.039,319.6,756.464l-15.368,10.411v45.55l12.3,2.708-9.068-47.068,11.811-8.8Z" transform="translate(-203.773 -742.038)"/></g><path class="d" d="M306.116,800.822,300.6,810.8l-10.769-1.923,7.94,8.12-6.97,8.365,11.829-2.257,8.4,7.629-1.8-10.72L319.5,814.7l-9.879-3.228Z" transform="translate(9.41 7.189)"/><path class="c" d="M304.988,800.822l-5.292,9.225-10.324-1.778,7.612,7.509-6.682,7.735,11.34-2.087,8.054,7.055-1.723-9.913,9.843-4.908-9.471-2.985Z" transform="translate(9.353 7.189)"/></g></svg>