<svg xmlns="http://www.w3.org/2000/svg" width="144.597" height="109.562" viewBox="0 0 144.597 109.562"><defs><style>.a{fill:#557faa;}.b{fill:#446d8e;}.c{fill:#555faa;}.d{fill:#77b2a1;}</style></defs><g transform="translate(-1321.767 -740.793)"><path class="a" d="M1363.524,818.389l41.143-77.6,20.146,87.359Z" transform="translate(0.315 0)"/><path class="a" d="M1394.483,834.23l-37.042-4.6-22.054-9.662h-13.621V830.5l10.525,9.379,13.874,3.054Z" transform="translate(0 0.598)"/><path class="a" d="M1388.36,833.461l41.411,4.68-1.65-5.153,30.474-1.039,7.266-3.79-2.87,11.484-12.438,4.03-18.658,6.022Z" transform="translate(0.503 0.66)"/><path class="b" d="M1404.358,740.793l12.536,96.566,14.529,3.2,27.065-3.993,7.251-7.744-6.185,3.226-31.555,1.6-3.781-6.732Z" transform="translate(0.624 0)"/><path class="b" d="M1335.286,819.964l20.328,3.8h9.778l-9.778,6.08Z" transform="translate(0.102 0.598)"/><path class="c" d="M1361.388,816.928l-5.927,12.934,74.559,8.365-3.31-11.244Z" transform="translate(0.254 0.575)"/><path class="d" d="M1385.018,797.168l-11.292,18.766C1381.829,818.272,1388.873,805.511,1385.018,797.168Z" transform="translate(0.392 0.426)"/><path class="d" d="M1398.164,802.824c5.511.955,8.547,8.522,5.225,13.022s-11.448,3.826-13.983-1.161S1391.217,801.621,1398.164,802.824Z" transform="translate(0.505 0.468)"/><path class="d" d="M1398.569,781.777l-7.7,7.534c.276,4.9,7.447,7.635,10.916,4.165S1402.516,782.836,1398.569,781.777Z" transform="translate(0.522 0.309)"/><path class="d" d="M1410.226,805.688l.832,12.528a7.05,7.05,0,0,0,5.743-7.595C1416.345,807.133,1412.8,804.357,1410.226,805.688Z" transform="translate(0.668 0.487)"/><path class="d" d="M1403.988,773.567l8.843,20.17C1411.2,786.653,1409.564,779.568,1403.988,773.567Z" transform="translate(0.621 0.248)"/><path class="d" d="M1399.53,759.284l-11.175,22.659C1397.24,779.385,1402.4,768.128,1399.53,759.284Z" transform="translate(0.503 0.14)"/><path class="d" d="M1385.648,787.28l-10.09,11.286C1381.792,799.743,1387.55,791.777,1385.648,787.28Z" transform="translate(0.406 0.351)"/><path class="d" d="M1405.5,799.023c.584,1.676,3.6,1.42,3.892-.33s-2.475-2.974-3.573-1.58C1405.395,798.6,1404.969,800.1,1405.5,799.023Z" transform="translate(0.63 0.421)"/></g></svg>