<svg xmlns="http://www.w3.org/2000/svg" width="129.115" height="128.441" viewBox="0 0 129.115 128.441"><defs><style>.a{fill:#ff9f55;}.b{fill:#e28647;}.c{fill:#ffbf55;}.d{fill:none;stroke:#d45f55;stroke-miterlimit:10;}.e{fill:#d45f55;}</style></defs><g transform="translate(-1128.789 -707.919)"><path class="a" d="M1185.733,729.757l-8.332,21.771,9.508,16.841-16.534,43.563h55.335l-10.979-42.5-16.688-23.035V723.609l8.344-5.569,7.466,6.887-1.318-11.857-9.662-4.392-12.3,5.27Z" transform="translate(-4.858 -0.089)"/><path class="b" d="M1209.68,776.359l-21.863,2.882,1.13-2.977Z" transform="translate(-6.895 -7.984)"/><path class="a" d="M1171.792,832.526l-32.56-3.124-10.443-5.054,2.487,16.39,7.957,7.448,62.861-13.825Z" transform="translate(0 -13.6)"/><path class="a" d="M1205.969,834.92l41.869-2.693,14.563-7.88-13.658,25.613-81.454-6.035Z" transform="translate(-4.497 -13.6)"/><path class="b" d="M1163.134,834.655l87.205,4.226,11.576-14.533-14.563,7.88Z" transform="translate(-4.012 -13.6)"/><path class="c" d="M1167.187,825.589l-4.052,9.211,68.447.986-4.521-10.2Z" transform="translate(-4.012 -13.745)"/><path class="d" d="M1165.866,833.961l10.631-6.282,5.547,5.562,7.26-5.9,6.415,6.353,7.821-5.841,7.351,5.644,5.47-5.917,6.542,6.257,4.345-6.324" transform="translate(-4.331 -13.949)"/><path class="e" d="M1169.5,820.886l19.434-29.45-13.479,29.289,13.9-21.235-4.947,19.9,9.052-19.55q2.454,10.392,4.907,20.784l2-22.379,8.877,22.21-1.543-22.906,7.461,21.906-3.21-32.951,9.215,33.978-2.884-16.527,6.7,17.667" transform="translate(-4.755 -9.18)"/><path class="c" d="M1191.505,713.858c3.593-2.212,7.466-3.3,12.406-5.939,2.76,1.386,9.552,5.061,9.552,5.061l.391,3.525-9.653-5.086-8.9,5.98s1.646,21.726,1.922,29.22l6.837,12.969-10.553-8.55,5.893,12.384-9.892-12.7L1191.55,765l-6.146-13.2,2.644,10.6c-2.6-4.291-7.12-6.674-9.717-10.965C1179.427,747.966,1187.252,724.9,1191.505,713.858Z" transform="translate(-5.787 0)"/></g></svg>