<svg xmlns="http://www.w3.org/2000/svg" width="133.932" height="91.157" viewBox="0 0 133.932 91.157"><defs><style>.a{fill:#196771;}.b{fill:#2a9faa;}.c{fill:#55b2bb;}.d{fill:#7fc5cc;}.e{fill:#207780;}.f{fill:#228e93;}</style></defs><g transform="translate(-1492.88 -754.396)"><g transform="translate(1492.88 754.396)"><path class="a" d="M1526.6,842.359l-33.722-17.777V798.328l26.19,6.391,20.431,21.637,39.458,12.424,27.51-3.55,13.311-3.785,5.324,6.447v4.466l-15.973,6.65h-35.5Z" transform="translate(-1492.88 -757.852)"/><path class="b" d="M1525.761,806.607l14.483-20.361,26.136-9.833,36.4,4.015h16.861l-4.116-15.841-6.533,5.552,3.549-15.742,13.312,10.19,3.55,16.22-3.55,12.6L1608.1,804.449l-18.592,18.47,5.739,11.048-13.474,1.381-38.7-11.136Z" transform="translate(-1495.465 -754.396)"/><circle class="c" cx="6.477" cy="6.477" r="6.477" transform="translate(42.715 42.131)"/><circle class="d" cx="4.06" cy="4.06" r="4.06" transform="translate(63.002 31.289)"/><circle class="e" cx="4.07" cy="4.07" r="4.07" transform="translate(67.061 46.945)"/><circle class="d" cx="3.47" cy="3.47" r="3.47" transform="translate(59.35 60.411)"/><circle class="c" cx="5.877" cy="5.877" r="5.877" transform="translate(75.202 62.359)"/><circle class="d" cx="2.942" cy="2.942" r="2.942" transform="translate(86.956 46.945)"/><circle class="c" cx="2.559" cy="2.559" r="2.559" transform="translate(81.079 35.348)"/><circle class="e" cx="4.2" cy="4.2" r="4.2" transform="translate(99.517 36.108)"/><circle class="d" cx="3.882" cy="3.882" r="3.882" transform="translate(116.558 29.586)"/></g><path class="f" d="M1630.764,765.456l1.169,15.608-3.2,11.552L1610.48,801.3l-22.214,22.2,4.956,11.82,6.941-.486-5.74-11.048,18.592-18.47,17.748-11.042,3.55-12.6Z" transform="translate(-7.502 -0.87)"/></g></svg>