<svg xmlns="http://www.w3.org/2000/svg" width="47.206" height="53.969" viewBox="0 0 47.206 53.969"><defs><style>.a{fill:#fbfbf8;}.b,.i,.j{fill:#fff;}.c{fill:#92251f;}.c,.d,.e,.f,.g,.h{isolation:isolate;}.d{fill:#e38b82;}.e{fill:#791008;}.f{fill:#a8180c;}.g{fill:#c3574f;}.h{fill:#b6271c;}.i{stroke:#a0221a;stroke-width:5px;}.i,.j{font-size:26px;font-family:Muli-Black, Muli;font-weight:800;}</style></defs><g transform="translate(-512.093 -222.375)"><g transform="translate(509.813 223.683)"><path class="a" d="M2156.94-11.519,2153,12.29l31.8,19.548,7.3-16.741,8.1-17.136-25.823-20.092Z" transform="translate(-2150.72 20.824)"/><path class="b" d="M2164.888-16.326l-3.522,20.454,28.176,16.829,8.553-19.936,4.025-9.062-22.893-18.9Z" transform="translate(-2156.112 28.547)"/><path class="c" d="M2169.615-6.35l.281-.765,0,0,7.267-19.921-.122-.1-13.379,8.5a2.89,2.89,0,0,0-1.22,1.924l-3.4,20.589.315.193,5.178-.245a2.194,2.194,0,0,0,1.951-1.466Z" transform="translate(-2155.077 28.634)"/><path class="d" d="M2209.729-9.835l8.587.309a.154.154,0,0,0,.1-.275L2194.64-28.07l6.719,17.1a1.338,1.338,0,0,0,1.2.875Z" transform="translate(-2170.873 29.047)"/><path class="e" d="M2161.777,29.517a.132.132,0,0,0-.058.245l26.049,15.892.088-.225-19.6-15.407a2.284,2.284,0,0,0-1.537-.5Z" transform="translate(-2156.24 3.5)"/><path class="f" d="M2177.049,9.973a.454.454,0,0,0-.785.134h0l-3.307,9.175a1.374,1.374,0,0,0,.426,1.535l21.141,16.893.17-.442-9.392-16.98Z" transform="translate(-2161.218 12.247)"/><path class="e" d="M2224.195,5.6l-8.523-.166-7.188-.259a.293.293,0,0,0-.187.521l10.664,8.689L2224.2,5.61Z" transform="translate(-2176.884 14.298)"/><path class="g" d="M2196.852,19.9l8.872,16.04,3.607-9.344,4.041-10.469.376-.562-10.784-8.787a.567.567,0,0,0-.873.2L2196.8,17.989A2.089,2.089,0,0,0,2196.852,19.9Z" transform="translate(-2171.74 13.645)"/><path class="h" d="M2180.036-8.056l7.505,9.38a.915.915,0,0,0,1.547-.184L2194.347-9.8a.979.979,0,0,0,.033-.769l-7.016-18.566-.083-.068-7.4,20.2A.975.975,0,0,0,2180.036-8.056Z" transform="translate(-2164.3 29.549)"/></g><text class="i" transform="translate(534 256)"><tspan x="-7.8" y="0">1</tspan></text><text class="j" transform="translate(534.673 256)"><tspan x="-7.8" y="0">1</tspan></text></g></svg>