<svg xmlns="http://www.w3.org/2000/svg" width="59.297" height="62.358" viewBox="0 0 59.297 62.358"><defs><style>.a{fill:#449384;}.b{fill:#61d3be;}.c{fill:#339b8b;}.d{fill:#26534b;}.e,.f{fill:#fff;font-size:26px;font-family:Muli-Black, Muli;font-weight:800;}.e{stroke:#2f8070;stroke-width:5px;}</style></defs><g transform="translate(-503.169 -214.305)"><g transform="translate(-507.509 -301.884) rotate(-30)"><path class="a" d="M642.782,1046.025c-3.437-1.43-6.853-2.889-10.3-4.345-3.017,2.364-5.981,4.656-8.869,7a1.06,1.06,0,0,0-.1,1.167c2.035,3.82,4.126,7.624,6.211,11.429.82,1.5,1.662,2.986,2.494,4.479l.438-.032c.4-.688.8-1.374,1.192-2.065q4.575-8.067,9.135-16.138C643.263,1047.021,643.872,1046.479,642.782,1046.025Z" transform="translate(-5.713 -41.09)"/><path class="b" d="M639.067,999.226a1.283,1.283,0,0,0,.614,1.173c3.183,1.421,6.424,2.77,9.668,4.113a1.656,1.656,0,0,0,1.1.052c1.7-1.291,4.3-2.295,2.987-4.659a2.225,2.225,0,0,1-.125-.508q-3.162-11.2-6.327-22.4-1.457-5.158-2.912-10.317l-.264.005q-.97,6.639-1.941,13.278C640.922,986.38,639.963,992.8,639.067,999.226Z" transform="translate(-11.842)"/><path class="c" d="M617.468,1007.427c2.787-2.181,5.591-4.35,8.33-6.564a2.1,2.1,0,0,0,.681-1.3q1.928-12.931,3.795-25.866.473-3.237.959-6.472a.745.745,0,0,0-.466.325q-6.466,9.65-12.93,19.3-4.261,6.354-8.534,12.7c-.34.507-.887,1.009-.189,1.6,2.563,2.187,5.115,4.38,7.736,6.627A7.043,7.043,0,0,0,617.468,1007.427Z" transform="translate(0 -0.302)"/><path class="d" d="M612.817,1048.7l10.548,14.333.295-.12C620.579,1057.979,619.255,1052.331,612.817,1048.7Z" transform="translate(-1.58 -44.937)"/><path class="b" d="M650.978,1050.379c-1.343,2.718-2.994,5.352-4.5,8.025-1.177,2.087-2.338,4.178-3.506,6.268l.309.1,15.851-17.092-3.246-1.95C654.021,1047.227,651.949,1048.415,650.978,1050.379Z" transform="translate(-13.37 -43.306)"/><path class="a" d="M654.462,985.194q-1.7-3.722-3.409-7.442l-.2.037c.115.5.211.993.347,1.485,2.432,8.765,4.91,17.524,7.272,26.3a5.188,5.188,0,0,0,3.951,4.09c.1-.366.23-.7.291-1.041.325-1.791.968-3.5.048-5.388C659.858,997.259,657.211,991.213,654.462,985.194Z" transform="translate(-16.454 -6.068)"/></g><text class="e" transform="translate(536 256)"><tspan x="-7.8" y="0">3</tspan></text><text class="f" transform="translate(536 256)"><tspan x="-7.8" y="0">3</tspan></text></g></svg>