<svg xmlns="http://www.w3.org/2000/svg" width="210.67" height="287.404" viewBox="0 0 210.67 287.404"><defs><style>.a{fill:#518789;stroke:rgba(0,0,0,0);stroke-miterlimit:10;}</style></defs><path class="a" d="M-15103.579,2301.227h0l-19.414-3.517-7.062-11.717-7.938,12.108-9.265-.391-19.414,1.954-21.622-8.2-14.56,7.031-24.238-5.881-30.472,6.663,13.233-19.92-16.322-7.812,14.561-5.858-11.913-20.472,9.269-24.924-10.368-9.169,11.476-34.219-12.812-6.318,12.605-17.387-15.916-23.211,6.4-9.56-9.705-13.675,20.388-26.583-11.257-25.369,9.916-7.41h26.82l20.112-17.1,17.732,4.889,10.353-19.951,12.223,9.479,20.655,7.138,18.127-6.445,12.476,17.035h20.334l7.521,12.36h16.031l-3.1,32-9.705,8.2,9.288,26.76-10.629,8.4,9.725,22.648-5.736,26.166,11.027,14.843-4.41,18.748,3.529,13.671-10.591,14.84h13.679l-4.41,15.234,9.265,16.4-11.912,6.64,8.82,12.771-14.115,4.414-14.119-8.981-14.56,13.671Zm-133.152-244.092v222.221h151V2057.135Z" transform="translate(15267.68 -2014.463)"/></svg>