<svg xmlns="http://www.w3.org/2000/svg" width="24.455" height="24.455" viewBox="0 0 24.455 24.455"><defs><style>.a{fill:#171c31;}</style></defs><g transform="translate(-1476.046 -508.895)"><g transform="translate(1476.046 508.895)"><path class="a" d="M1497.428,550.719l-8.589,5.231-2.572-2.761,1.2-6.434Z" transform="translate(-1482.322 -532.14)"/><path class="a" d="M1485.818,541.817l-9.772-2.374.134-3.771,5.4-3.7Z" transform="translate(-1476.046 -523.062)"/><path class="a" d="M1482.948,530.278l-5.231-8.588,2.762-2.572,6.434,1.2Z" transform="translate(-1477.072 -515.171)"/><path class="a" d="M1490.814,518.666l2.374-9.772,3.771.134,3.7,5.4Z" transform="translate(-1485.114 -508.895)"/><path class="a" d="M1500.265,515.8l8.589-5.231,2.572,2.762-1.2,6.434Z" transform="translate(-1490.916 -509.92)"/><path class="a" d="M1514.085,523.662l9.771,2.374-.134,3.771-5.4,3.7Z" transform="translate(-1499.401 -517.962)"/><path class="a" d="M1517.872,533.114l5.231,8.588-2.762,2.572-6.434-1.2Z" transform="translate(-1499.292 -523.765)"/><path class="a" d="M1508.969,546.933,1506.6,556.7l-3.771-.134-3.7-5.4Z" transform="translate(-1490.215 -532.25)"/></g><circle class="a" cx="2.888" cy="2.888" r="2.888" transform="translate(1485.386 518.235)"/></g></svg>