<svg xmlns="http://www.w3.org/2000/svg" width="29.575" height="37.622" viewBox="0 0 29.575 37.622"><defs><style>.a{fill:#fbfbf8;}</style></defs><g transform="translate(-1042.497 -702.971) rotate(-16)"><path class="a" d="M810.81,1040.727l-.15.139,4.583,7.2.125-.063c-1.135-2-2.249-4.016-3.419-6A8.736,8.736,0,0,0,810.81,1040.727Z" transform="translate(-3.03 -53.78)"/><path class="a" d="M824.933,1037.246c-.538-.179-1.052-.428-1.578-.644l-4.755-1.95c-.429.789-.866,1.521-1.222,2.291a1.108,1.108,0,0,0,.017.876q3.566,6.411,7.184,12.794c.241.426.533.824.8,1.235.106-1.654.106-3.256.106-4.858,0-2.966-.01-5.932.012-8.9A.74.74,0,0,0,824.933,1037.246Z" transform="translate(-7.903 -49.319)"/><path class="a" d="M810.575,990.094c1.659-4.142,3.26-8.307,4.881-12.465.375-.961.74-1.927,1.109-2.89-1.048,1.439-2,2.922-2.948,4.406q-3.493,5.459-6.974,10.927c-.109.172-.156.552-.05.664.762.807,1.57,1.569,2.42,2.4C809.564,992.076,810.163,991.122,810.575,990.094Z" transform="translate(0 -5.324)"/><path class="a" d="M835.558,983.919l-5.865-16.43-.163.008-6.83,17.53c.259.114.459.206.661.29,1.651.681,3.326,1.31,4.944,2.061a2.075,2.075,0,0,0,2.419-.2C832.266,986.023,833.913,985.015,835.558,983.919Z" transform="translate(-11.871)"/><path class="a" d="M854.764,1030.969q-2.492,1.692-5.018,3.331a.981.981,0,0,0-.506.936c.016,4.2.009,8.4.009,12.6v1.145l.143.059,9.767-15.315c-1.2-.932-2.354-1.815-3.488-2.73A.643.643,0,0,0,854.764,1030.969Z" transform="translate(-31.36 -46.489)"/><path class="a" d="M856.334,980.9l-2.911-5.122-.086.038c.054.167.1.335.163.5,1.411,3.952,2.875,7.887,4.206,11.866a5.5,5.5,0,0,0,2.28,3.064c.736.479,1.4,1.063,2.175,1.655a3.994,3.994,0,0,0-.4-2.494C859.915,987.267,858.138,984.078,856.334,980.9Z" transform="translate(-34.37 -6.09)"/></g></svg>