<svg xmlns="http://www.w3.org/2000/svg" width="210.666" height="287.407" viewBox="0 0 210.666 287.407"><defs><style>.a{fill:#d35444;stroke:rgba(0,0,0,0);stroke-miterlimit:10;}</style></defs><path class="a" d="M-14660.852,2301.226h0l-19.412-3.516-7.058-11.716-7.942,12.106-9.265-.391-19.416,1.953-21.62-8.2-14.558,7.032-24.238-5.882-30.475,6.663,13.237-19.919-16.325-7.813,14.563-5.856-11.913-20.473,9.268-24.927-10.369-9.167,11.478-34.217-12.812-6.321,12.6-17.389-15.916-23.212,6.4-9.562-9.7-13.673,20.388-26.582-11.262-25.37,9.919-7.407h26.82l20.108-17.1,17.735,4.889,10.351-19.953,12.226,9.483,20.655,7.136,18.126-6.444,12.479,17.032h20.332l7.519,12.363h16.031l-3.095,32.007-9.707,8.2,9.29,26.757-10.63,8.4,9.722,22.65-5.733,26.169,11.031,14.841-4.412,18.747,3.527,13.669-10.589,14.844h13.68l-4.412,15.231,9.264,16.4-11.912,6.641,8.82,12.769-14.115,4.416-14.118-8.985-14.562,13.672ZM-14794,2057.137v222.217h151V2057.137Z" transform="translate(14824.946 -2014.46)"/></svg>