<svg xmlns="http://www.w3.org/2000/svg" width="41.585" height="67.593" viewBox="0 0 41.585 67.593"><defs><style>.a{fill:#fbe180;}</style></defs><g transform="translate(-1371.907 -726.166) rotate(-9)"><path class="a" d="M1263.3,970.373l11.267-16.956-7.2-10.809-7.375,1.25-7.375-1.25-7.2,10.809,11.268,16.956.091,4.133-11.315,17.939,9.3,9.658,4.745.263v.054l.484-.027.484.027v-.054l4.745-.263,9.3-9.658-11.315-17.939Z" transform="translate(-3.322 -4.042)"/><path d="M1240.791,937.1l-.157,3.867,32.068.309v-4.486Z" transform="translate(0)"/><path d="M1240.791,1130.3l-.157,3.855,32.068.308v-4.472Z" transform="translate(0 -134.309)"/><path d="M1255.823,982.841l8.943,13.3,1.484,2.134.977,6.362-.82,3.587-2.384,5.824-2.134,3.062-5.343,4.9,5.622,5.678,10.688-.242,5.771-5.659-6.123-4.6-2.283-3.071-1.419-5.195-.975-4.32.386-6.3,10.407-14.922-6.186.292-5.258.1h-4.284Z" transform="translate(-10.559 -32.012)"/><path d="M1307.35,953.145l4.068,3.035.428,2.171.476,2.415.54-2.878.235-1.256-2.454-3.423Z" transform="translate(-46.381 -11.367)"/><path d="M1328.41,970.161l.852,1.749-.6,2.094,1.611-1.68Z" transform="translate(-61.022 -23.197)"/><path d="M1262.4,953.145l-2.971,4.229,5.108-3.772Z" transform="translate(-13.068 -11.367)"/><path d="M1260.585,1066.186l-7.261,11.575.762,1.423Z" transform="translate(-8.822 -89.954)"/></g></svg>