<svg xmlns="http://www.w3.org/2000/svg" width="198.32" height="89.602" viewBox="0 0 198.32 89.602"><defs><style>.a,.c{fill:#fff;}.a,.b,.d,.e{isolation:isolate;}.d{fill:#ff6358;}.e,.g{fill:#999;}.f{fill:#edeae5;}</style></defs><path class="a" d="M905.916,663.9c-1.2-.249-2.9-5.518-3.9-6.513-.581-.581-.415-3.444-.373-4.4-1.535.29-3.817-.664-5.021-1.079-1.742-.373-4.356-4.4-5.186-5.353-1.618-1.742-1.618-7.343-1.618-10.124,0-3.028,2.448-8.546,4.356-10.372,1.742-1.659,6.265-2.406,8.837-2.448,2.365,0,5.975,1.7,7.551,3.071,1.908,1.825,3.941,13.359,3.941,16.388,0,2.406-2.9,5.518-4.107,7.178-1.369,1.825-3.817,2.614-6.265,3.069a4,4,0,0,0,.664,2.989c3.319,3.94,9.086,2.116,13.858-1.411l1.12,1.328-7.633,7.634C910.979,665.017,907.079,664.145,905.916,663.9Zm1.743-35.349a6.963,6.963,0,0,0-4.979-2.034c-1.7,0-2.365.955-3.526,2.407-1.162,1.411-4.273,4.605-4.273,7.551,0,2.988-.084,4.855.414,6.6.83,2.78,1.162,4.232,3.112,6.141.414.5,2.157,1.867,3.361,1.825.165,0-2.781-6.016-2.7-6.473.167-.456,2.988.955,3.2.913.249-.042,1.535,5.144,1.742,5.1,1.494-.29,2.656-1.868,3.154-2.489,1.2-1.369.663-3.4.663-6.473S908.863,629.958,907.66,628.548Z" transform="translate(-889.819 -603.85)"/><path class="a" d="M951.961,628.077a4.97,4.97,0,0,0-1.079,1.784L946.069,646.5l-.705,5.061-1.079,5.684-2.7.913-2.324-6.8-2.7-6.722-4.979,11.575-.58,1.079-2.822-7.676-2.78-6.887c-1.12-2.738-5.394-15.932-5.768-16.472-.415-.664-1.411-3.194-3.277-2.406l.415-1.867,11.2.788.249,2.157c-.5.042-.788-.207-1.037-.082-.456.165-1.825.165-2.033,1.41,0,.208,1.328,4.772,1.369,4.979l2.489,7.468,3.237,9.46,3.07-7.468-1.908-7.427c-.167-.664-1.495-1.2-1.992-1.535a3.937,3.937,0,0,0-1.369-.373v-1.328l11.741,2.2v1.369c-.7-.083-1.534-.539-1.825-.456-.539.166-2.449.871-2.158,2.448,0,.167,1.2,3.4,1.37,3.859l3.443,10.041,3.029-10.082c.166-.581,2.24-7.759,2.323-8.215,0-.249.29-1.576.29-1.742a1.105,1.105,0,0,0-.747-1.079,18.41,18.41,0,0,0-2.738-.581v-1.37l11.907-1.036v2.157C956.234,627.62,953.163,626.708,951.961,628.077Z" transform="translate(-893.421 -603.628)"/><path class="a" d="M1010.12,654.821l-30.329,5.684-1.494-2.863s5.144-7.717,8.257-12.945c2.24-3.734,7.054-9.335,9.376-13.193a38.819,38.819,0,0,0,3.2-6.306l-13.858,2.779c-1.7.333-1.659,1.494-2.78,4.067-.29.622.415,2.074,2.324,4.937l-3.278.125-2.116-11.161,29.209-5.31-1,3.111s-.954,3.9-5.477,9.667a160.093,160.093,0,0,0-9.46,13.069c-1.328,2.157-5.227,8.879-5.227,8.879l14.272-1.909c1.867-.249,4.606-2.239,4.812-3.4.333-1.7-.539-4.522-1.783-5.394-1.079-.747-2.406-.082-3.61,3.818,0,0-1.576-2.034-.5-3.527,1.369-1.784,5.975-3.941,5.975-3.941s2.78,4.854,3.775,7.094C1011.531,650.547,1010.12,654.821,1010.12,654.821Z" transform="translate(-901.826 -603.446)"/><path class="a" d="M1087.484,663.666l-4.191,1.369c-1.825-.166-2.322-.166-3.443-1.742-1.12-1.245-4.439-13.193-5.062-14.4-.788-1.494-2.53-7.012-2.655-6.971a6.849,6.849,0,0,1-1.825.207,13.266,13.266,0,0,1-2.2-.207l.539,14.355a2.665,2.665,0,0,0,.705,1.909,13.279,13.279,0,0,0,4.066,1.369l.042,1.328-13.691-1.576-.041-1.287c.953-.125,3.567-.373,3.775-.747a51.081,51.081,0,0,0,.747-6.638l.207-18.629c0-.871-.249-4.813-.621-4.813a4.779,4.779,0,0,0-2.075-.664,4.511,4.511,0,0,0-2.365,1.369l-.456-2.488,10.455-1.826a41.141,41.141,0,0,1,5.767-.788,3.531,3.531,0,0,1,1.618.29c3.526,2.157,6.058,3.652,6.058,9.086,0,2.655-1,6.763-3.9,8.215-.332.124-3.61,1.12-3.61,1.12a39.338,39.338,0,0,0,2.739,4.772c-.041.041,4.9,12.155,6.639,14.52a7.8,7.8,0,0,0,3.526-4.522,1.149,1.149,0,0,1,.374-.042,1.906,1.906,0,0,1,1,.332C1088.895,658.314,1089.351,661.426,1087.484,663.666ZM1073.5,626.492a5.533,5.533,0,0,0-.995-.084c-1.245,0-3.071.208-3.9.249-1.037.084-.83.29-.788,1.493l.29,10.954c.332,0,1.286.125,1.908.125,1,0,4.315-1.742,5.436-2.365.871-.5,1.369-2.615,1.369-4.025a3.236,3.236,0,0,0-.125-1C1076.157,630.392,1074.913,626.948,1073.5,626.492Z" transform="translate(-912.769 -603.739)"/><path class="a" d="M1113.383,648.728c-.706,1.453-1.2,3.071-2.573,4.108a9.912,9.912,0,0,1-2.78,1.577c-1.7.622-3.486,2.075-5.933,2.2l-12.9,1.536-.166-1.577c1.328.871,3.652-.539,3.983-.87a4.273,4.273,0,0,0,.913-2.863l-1.452-21.533a3.466,3.466,0,0,0-.5-2.24c-.332-.373-1.037-1.369-4.356-.249a7.219,7.219,0,0,1-1.079-1.743c3.278,0,11.451-1.2,11.451-1.2,2.946-.29,9.833,2.283,11.907,3.278,3.692,1.742,4.937,10.5,4.937,15.019A11.327,11.327,0,0,1,1113.383,648.728Zm-5.518-17.757c-4.647-2.157-5.684-.83-8.547-.913a2.784,2.784,0,0,0-1.494.29c-.29.124-.415.5-.415,1l.248,21.117a5.318,5.318,0,0,0,.582,2.2,4.446,4.446,0,0,0,2.282-.124c3.071-.913,4.647-2.615,6.265-3.652.788-.539,1.742-2.489,2.655-5.558a26.923,26.923,0,0,0,1.369-9.418C1110.6,634,1110.229,632.091,1107.865,630.971Z" transform="translate(-916.514 -604.153)"/><g class="b" transform="translate(52.283 15.949)"><path class="c" d="M950.789,666.117l-.479-2.168c1.235.869,1.322.844,2.806-.265.344-.232,5.825-15.588,5.956-16.6,0,0,2.746-8.558,3-10.49.38-2.926,1.037-5.97,1.037-5.97.3-.994-.372-.7-.564-1.031-.258-.4,2.984-4.043,1.953-4.489l.406-5.9h8.157l1.214,5.191-3.283,3.141c-1.086-.29-.328,5.368-.723,5.494-.448.151-1.515-.57-1.986.408,0,0-.616,1.344-1.294,2.581-1.92,3.506-3.99,8.216-3.99,8.216-.341.978-6.873,19.741-6.93,20.16-.147,1.179-.567,1.462.213,2,.767.574.73.418,2.07.357l-1.928,1.451Z" transform="translate(-950.31 -619.2)"/></g><path class="d" d="M969.166,624.167l-1.4-9.108,5.138-2.95,4.64,1.427.213,8.564-2.972.259-1.808,2.95Z" transform="translate(-900.396 -602.289)"/><path class="e" d="M1019.4,646.121s-5.518,36.474,0,40.09,18.85,14.789,22.276,8.319,4.367-7.557,2.844-8.7-3.806,1.142-3.425,2.283.952,0,.952,0,2.283-1.142-.381,2.093-7.041,3.235-9.515-.57,12.37-30.551,13.893-35.638C1022.935,647.395,1019.4,646.121,1019.4,646.121Z" transform="translate(-907.071 -606.904)"/><path class="f" d="M1042.815,653.411c-2.569,8.379-8.1,12.418-13.209,10.853s-7.852-8.143-5.282-16.523,8.792-13.9,13.9-12.337S1045.384,645.032,1042.815,653.411Z" transform="translate(-907.939 -605.414)"/><path class="a" d="M1010.76,635.521l6.851,2.283,11.936-15.548,4.48-13.708,3.566-7.8s6.459,1.708,7.422,4.187c.381,7.8,0-1.937-5.328,0-2.888,1.05-1.9,5.138-1.9,5.138l4.43,23.112L1047.3,645.8l9.994-1.523-10.375,4.948-29.307-8.373Z" transform="translate(-906.231 -600.747)"/><g class="b" transform="translate(116.249 46.471)"><path class="g" d="M1030.155,662.287a13.474,13.474,0,0,1-1.972.366,3.144,3.144,0,0,1-1.841-.523,3.613,3.613,0,0,1-1.913-4.028,7.981,7.981,0,0,1,2.421-3.587l.774,1.289c-.741.353-.986,1.411-1.039,1.436.211.647.406,1.334.953,1.529.75.267,2.594-.406,4.261-.926Q1031.009,660.076,1030.155,662.287Z" transform="translate(-1024.319 -654.515)"/><path class="g" d="M1040.282,658.926l-2.116.292c.256.945.557.972.062,2.249-.15.386-.644,1.086-1.34.815-.14-.1-1.186-1.305-1.247-1.373a24.345,24.345,0,0,1-1.462-2.05c-.539,1.48-1.1,2.95-1.682,4.414a3.164,3.164,0,0,0,.836.835,9.758,9.758,0,0,0,1.671.738,4.074,4.074,0,0,0,2.7.156,7.3,7.3,0,0,0,1.878-2.433A9.338,9.338,0,0,0,1040.282,658.926Z" transform="translate(-1025.429 -655.104)"/></g><g class="b" transform="translate(67.145 10.014)"><path class="c" d="M971.67,618.247a2.441,2.441,0,0,1-1.2-.5c-.306-.333-1.15-1.173-.984-1.851a5.1,5.1,0,0,1,3.2-3.391,3.4,3.4,0,0,1,2.867.346c.787.435,2.144,1.022,2.49,1.959.364.948.965,2.564.422,3.548-.138.251-1.66,2.585-2.16,3.15a3.806,3.806,0,0,1-3.17,1.261c-1.266.094-2-.521-3.428-.515-.687.016-1.488.579-1.277,1.045a2.566,2.566,0,0,0,.3.515l-.4.386c-.381-.537-1.012-1.423-.779-1.761a4.97,4.97,0,0,1,1.138-1.426,4.887,4.887,0,0,1,1.307-.423c.389-.112,1.162.221,1.743.1a5.541,5.541,0,0,0,2.2-.651,19.5,19.5,0,0,0,1.722-2.271,4.865,4.865,0,0,0,.344-2.355,2.006,2.006,0,0,0-1.05-1.607,3.283,3.283,0,0,0-1.646-.233c-.36.059-.953.711-1.167,1.013-.415.752-.895,1.958-.324,2.787.141.124.188.29,1.022-.16l.468.843A2.618,2.618,0,0,1,971.67,618.247Z" transform="translate(-967.506 -612.333)"/></g></svg>