<svg xmlns="http://www.w3.org/2000/svg" xmlns:xlink="http://www.w3.org/1999/xlink" width="477" height="318" viewBox="0 0 477 318"><defs><style>.a{clip-rule:evenodd;}.b{fill:#c3b8b4;}.c{mix-blend-mode:soft-light;}.c,.g{isolation:isolate;}.d,.h{fill-rule:evenodd;}.e{clip-path:url(#a);}.f{fill:url(#b);}.g{opacity:0.52;mix-blend-mode:screen;fill:url(#c);}.h,.i,.j,.k{fill:#fff;}.h{opacity:0.11;}.i{opacity:0.26;}.j{opacity:0.69;}.k{opacity:0.21;}</style><clipPath id="a"><path class="a" d="M2197.97,1717.659v-20.632s33.836-9.794,37.965-45.741l93.649.465s-2.652,32.972,31.866,45.571v20.838Z"/></clipPath><radialGradient id="b" cx="0.836" cy="0.293" r="0.961" gradientTransform="translate(0)" gradientUnits="objectBoundingBox"><stop offset="0" stop-color="#ff6358"/><stop offset="1" stop-color="#f44337"/></radialGradient><radialGradient id="c" cx="0.5" cy="0.5" r="0.547" gradientUnits="objectBoundingBox"><stop offset="0" stop-color="#ff6358"/><stop offset="0.117" stop-color="#e85a50"/><stop offset="0.362" stop-color="#ad433c"/><stop offset="0.712" stop-color="#511f1c"/><stop offset="1"/></radialGradient></defs><g transform="translate(-478 -260)"><rect class="b" width="477" height="318" transform="translate(478 260)"/><g transform="translate(-1562.229 -1184.911)"><g class="c"><path class="d" d="M2197.97,1717.659v-20.632s33.836-9.794,37.965-45.741l93.649.465s-2.652,32.972,31.866,45.571v20.838Z"/><g class="e"><rect width="163.48" height="58.948" transform="translate(2197.97 1665.212)"/><path class="d" d="M2189.344,1667.368c0-15.78,9.976-30.066,26.106-40.408v33.158H2341.5V1626.96c16.13,10.342,26.107,24.628,26.107,40.408,0,31.561-39.906,57.146-89.132,57.146S2189.344,1698.929,2189.344,1667.368Z"/><path class="d" d="M2190.108,1667.368c0-15.645,9.891-29.809,25.882-40.061v32.811h124.971v-32.811c15.991,10.252,25.882,24.416,25.882,40.061,0,31.29-39.563,56.656-88.367,56.656S2190.108,1698.658,2190.108,1667.368Z"/><path class="d" d="M2190.872,1667.368c0-15.509,9.806-29.551,25.658-39.715v32.465h123.891v-32.465c15.852,10.164,25.658,24.206,25.658,39.715,0,31.02-39.222,56.166-87.6,56.166S2190.872,1698.388,2190.872,1667.368Z"/><path class="d" d="M2191.636,1667.368c0-15.374,9.72-29.293,25.435-39.368v32.118H2339.88V1628c15.715,10.075,25.435,23.994,25.435,39.368,0,30.749-38.879,55.676-86.839,55.676S2191.636,1698.117,2191.636,1667.368Z"/><path class="d" d="M2192.4,1667.368c0-15.239,9.634-29.035,25.21-39.022v31.772H2339.34v-31.772c15.576,9.987,25.21,23.783,25.21,39.022,0,30.478-38.537,55.186-86.074,55.186S2192.4,1697.846,2192.4,1667.368Z"/><path class="d" d="M2193.165,1667.368c0-15.1,9.549-28.777,24.987-38.675v31.425H2338.8v-31.425c15.438,9.9,24.987,23.572,24.987,38.675,0,30.208-38.195,54.7-85.31,54.7S2193.165,1697.576,2193.165,1667.368Z"/><path class="d" d="M2193.93,1667.368c0-14.968,9.463-28.519,24.762-38.329v31.079h119.567v-31.079c15.3,9.81,24.763,23.361,24.763,38.329,0,29.937-37.853,54.206-84.546,54.206S2193.93,1697.305,2193.93,1667.368Z"/><path class="d" d="M2194.694,1667.368c0-14.833,9.377-28.262,24.539-37.982v30.732h118.485v-30.732c15.162,9.72,24.539,23.149,24.539,37.982,0,29.666-37.51,53.716-83.781,53.716S2194.694,1697.034,2194.694,1667.368Z"/><path class="d" d="M2195.458,1667.368c0-14.7,9.292-28,24.315-37.636v30.386h117.405v-30.386c15.023,9.632,24.315,22.939,24.315,37.636,0,29.4-37.168,53.226-83.017,53.226S2195.458,1696.764,2195.458,1667.368Z"/><path class="d" d="M2196.222,1667.368c0-14.562,9.207-27.746,24.092-37.289v30.039h116.323v-30.039c14.885,9.543,24.092,22.727,24.092,37.289,0,29.125-36.826,52.736-82.253,52.736S2196.222,1696.493,2196.222,1667.368Z"/><path class="d" d="M2196.987,1667.368c0-14.427,9.121-27.488,23.867-36.943v29.693H2336.1v-29.693c14.747,9.455,23.868,22.516,23.868,36.943,0,28.855-36.484,52.246-81.489,52.246S2196.987,1696.223,2196.987,1667.368Z"/><path class="d" d="M2197.751,1667.368c0-14.291,9.035-27.231,23.644-36.6v29.346h114.161v-29.346c14.609,9.365,23.644,22.305,23.644,36.6,0,28.584-36.141,51.756-80.724,51.756S2197.751,1695.952,2197.751,1667.368Z"/><path class="d" d="M2198.515,1667.368c0-14.156,8.95-26.973,23.42-36.25v29h113.081v-29c14.47,9.277,23.42,22.094,23.42,36.25,0,28.313-35.8,51.266-79.96,51.266S2198.515,1695.681,2198.515,1667.368Z"/><path class="d" d="M2199.279,1667.368c0-14.021,8.865-26.715,23.2-35.9v28.653h112v-28.653c14.331,9.188,23.2,21.882,23.2,35.9,0,28.043-35.458,50.776-79.2,50.776S2199.279,1695.411,2199.279,1667.368Z"/><path class="d" d="M2200.044,1667.368c0-13.885,8.778-26.457,22.972-35.557v28.307h110.919v-28.307c14.194,9.1,22.973,21.672,22.973,35.557,0,27.772-35.116,50.286-78.432,50.286S2200.044,1695.14,2200.044,1667.368Z"/><path class="d" d="M2200.808,1667.368c0-13.75,8.693-26.2,22.748-35.21v27.96H2333.4v-27.96c14.055,9.011,22.748,21.46,22.748,35.21,0,27.5-34.773,49.8-77.667,49.8S2200.808,1694.869,2200.808,1667.368Z"/><path class="d" d="M2201.572,1667.368c0-13.615,8.608-25.941,22.525-34.864v27.614h108.758V1632.5c13.916,8.923,22.524,21.249,22.524,34.864,0,27.231-34.431,49.306-76.9,49.306S2201.572,1694.6,2201.572,1667.368Z"/><path class="d" d="M2202.337,1667.368c0-13.48,8.522-25.683,22.3-34.517v27.267h107.677v-27.267c13.778,8.834,22.3,21.037,22.3,34.517,0,26.96-34.088,48.816-76.138,48.816S2202.337,1694.328,2202.337,1667.368Z"/><path class="d" d="M2203.1,1667.368c0-13.344,8.436-25.426,22.077-34.171v26.921h106.6V1633.2c13.64,8.745,22.076,20.827,22.076,34.171,0,26.689-33.746,48.326-75.374,48.326S2203.1,1694.057,2203.1,1667.368Z"/><path class="d" d="M2203.865,1667.368c0-13.209,8.351-25.168,21.853-33.824v26.574h105.515v-26.574c13.5,8.656,21.853,20.615,21.853,33.824,0,26.419-33.4,47.836-74.61,47.836S2203.865,1693.787,2203.865,1667.368Z"/><path class="d" d="M2204.629,1667.368c0-13.074,8.266-24.91,21.629-33.478v26.228h104.435V1633.89c13.363,8.568,21.629,20.4,21.629,33.478,0,26.149-33.062,47.345-73.846,47.345S2204.629,1693.517,2204.629,1667.368Z"/><path class="d" d="M2205.394,1667.368c0-12.938,8.18-24.652,21.405-33.131v25.881h103.353v-25.881c13.226,8.479,21.4,20.193,21.4,33.131,0,25.878-32.72,46.855-73.081,46.855S2205.394,1693.246,2205.394,1667.368Z"/><path class="d" d="M2206.158,1667.368c0-12.8,8.094-24.394,21.181-32.785v25.535h102.273v-25.535c13.087,8.391,21.181,19.982,21.181,32.785,0,25.607-32.378,46.365-72.317,46.365S2206.158,1692.975,2206.158,1667.368Z"/><path class="d" d="M2206.922,1667.368c0-12.668,8.009-24.136,20.958-32.439v25.189h101.191v-25.189c12.949,8.3,20.958,19.771,20.958,32.439,0,25.337-32.036,45.875-71.553,45.875S2206.922,1692.7,2206.922,1667.368Z"/><path class="d" d="M2207.686,1667.368c0-12.532,7.924-23.879,20.734-32.092v24.842h100.111v-24.842c12.81,8.213,20.734,19.56,20.734,32.092,0,25.066-31.694,45.386-70.789,45.386S2207.686,1692.434,2207.686,1667.368Z"/><path class="d" d="M2208.451,1667.368c0-12.4,7.838-23.621,20.51-31.745v24.495h99.029v-24.495c12.673,8.124,20.51,19.348,20.51,31.745,0,24.795-31.351,44.9-70.024,44.9S2208.451,1692.163,2208.451,1667.368Z"/><path class="d" d="M2209.215,1667.368c0-12.262,7.753-23.363,20.286-31.4v24.149h97.949v-24.149c12.533,8.036,20.286,19.137,20.286,31.4,0,24.525-31.009,44.406-69.26,44.406S2209.215,1691.893,2209.215,1667.368Z"/><path class="d" d="M2209.98,1667.368c0-12.126,7.666-23.105,20.062-31.053v23.8h96.868v-23.8c12.4,7.948,20.062,18.927,20.062,31.053,0,24.254-30.667,43.916-68.5,43.916S2209.98,1691.622,2209.98,1667.368Z"/><path class="d" d="M2210.744,1667.368c0-11.991,7.581-22.848,19.838-30.706v23.456h95.787v-23.456c12.257,7.858,19.838,18.715,19.838,30.706,0,23.984-30.324,43.426-67.731,43.426S2210.744,1691.352,2210.744,1667.368Z"/><path class="d" d="M2211.508,1667.368c0-11.856,7.5-22.59,19.614-30.359v23.109h94.707v-23.109c12.119,7.769,19.614,18.5,19.614,30.359,0,23.713-29.982,42.936-66.967,42.936S2211.508,1691.081,2211.508,1667.368Z"/><ellipse cx="66.203" cy="42.445" rx="66.203" ry="42.445" transform="translate(2212.272 1624.923)"/><ellipse cx="65.439" cy="41.955" rx="65.439" ry="41.955" transform="translate(2213.037 1625.413)"/><ellipse cx="64.675" cy="41.465" rx="64.675" ry="41.465" transform="translate(2213.801 1625.903)"/><ellipse cx="63.91" cy="40.975" rx="63.91" ry="40.975" transform="translate(2214.565 1626.393)"/><ellipse cx="63.146" cy="40.485" rx="63.146" ry="40.485" transform="translate(2215.329 1626.883)"/><ellipse cx="62.382" cy="39.995" rx="62.382" ry="39.995" transform="translate(2216.094 1627.373)"/><ellipse cx="61.617" cy="39.505" rx="61.617" ry="39.505" transform="translate(2216.858 1627.863)"/><ellipse cx="60.853" cy="39.015" rx="60.853" ry="39.015" transform="translate(2217.622 1628.353)"/><ellipse cx="60.089" cy="38.525" rx="60.089" ry="38.525" transform="translate(2218.387 1628.843)"/><ellipse cx="59.325" cy="38.035" rx="59.325" ry="38.035" transform="translate(2219.151 1629.333)"/><ellipse cx="58.56" cy="37.545" rx="58.56" ry="37.545" transform="translate(2219.915 1629.823)"/><ellipse cx="57.796" cy="37.055" rx="57.796" ry="37.055" transform="translate(2220.68 1630.313)"/><ellipse cx="57.032" cy="36.565" rx="57.032" ry="36.565" transform="translate(2221.444 1630.803)"/><path class="d" d="M2222.208,1667.368c0-19.923,25.192-36.075,56.268-36.075s56.267,16.152,56.267,36.075-25.192,36.076-56.267,36.076S2222.208,1687.292,2222.208,1667.368Z"/><path class="d" d="M2222.972,1667.368c0-19.653,24.85-35.585,55.5-35.585s55.5,15.932,55.5,35.585-24.85,35.586-55.5,35.586S2222.972,1687.021,2222.972,1667.368Z"/><path class="d" d="M2223.737,1667.368c0-19.382,24.507-35.1,54.739-35.1s54.739,15.713,54.739,35.1-24.508,35.1-54.739,35.1S2223.737,1686.751,2223.737,1667.368Z"/><path class="d" d="M2224.5,1667.368c0-19.111,24.165-34.605,53.975-34.605s53.974,15.494,53.974,34.605-24.165,34.606-53.974,34.606S2224.5,1686.48,2224.5,1667.368Z"/><path class="d" d="M2225.265,1667.368c0-18.841,23.824-34.114,53.211-34.114s53.21,15.273,53.21,34.114-23.823,34.115-53.21,34.115S2225.265,1686.21,2225.265,1667.368Z"/><path class="d" d="M2226.03,1667.368c0-18.57,23.48-33.624,52.446-33.624s52.445,15.054,52.445,33.624-23.48,33.625-52.445,33.625S2226.03,1685.939,2226.03,1667.368Z"/><path class="d" d="M2226.794,1667.368c0-18.3,23.139-33.134,51.682-33.134s51.681,14.834,51.681,33.134-23.139,33.135-51.681,33.135S2226.794,1685.668,2226.794,1667.368Z"/><ellipse cx="50.918" cy="32.645" rx="50.918" ry="32.645" transform="translate(2227.558 1634.723)"/><ellipse cx="50.153" cy="32.155" rx="50.153" ry="32.155" transform="translate(2228.323 1635.213)"/><ellipse cx="49.389" cy="31.665" rx="49.389" ry="31.665" transform="translate(2229.087 1635.703)"/><ellipse cx="48.625" cy="31.175" rx="48.625" ry="31.175" transform="translate(2229.851 1636.193)"/><ellipse cx="47.86" cy="30.685" rx="47.86" ry="30.685" transform="translate(2230.615 1636.683)"/><ellipse cx="47.096" cy="30.195" rx="47.096" ry="30.195" transform="translate(2231.379 1637.173)"/><ellipse cx="46.332" cy="29.705" rx="46.332" ry="29.705" transform="translate(2232.144 1637.663)"/><ellipse cx="45.567" cy="29.215" rx="45.567" ry="29.215" transform="translate(2232.908 1638.153)"/><ellipse cx="44.803" cy="28.725" rx="44.803" ry="28.725" transform="translate(2233.673 1638.643)"/><ellipse cx="44.039" cy="28.235" rx="44.039" ry="28.235" transform="translate(2234.437 1639.133)"/><ellipse cx="43.275" cy="27.745" rx="43.275" ry="27.745" transform="translate(2235.201 1639.624)"/><ellipse cx="42.51" cy="27.255" rx="42.51" ry="27.255" transform="translate(2235.966 1640.114)"/><ellipse cx="41.746" cy="26.765" rx="41.746" ry="26.765" transform="translate(2236.73 1640.604)"/><path class="d" d="M2237.494,1667.368c0-14.511,18.348-26.274,40.982-26.274s40.981,11.763,40.981,26.274-18.348,26.275-40.981,26.275S2237.494,1681.879,2237.494,1667.368Z"/><path class="d" d="M2238.258,1667.368c0-14.24,18.006-25.784,40.218-25.784s40.217,11.544,40.217,25.784-18.006,25.785-40.217,25.785S2238.258,1681.609,2238.258,1667.368Z"/><path class="d" d="M2239.022,1667.368c0-13.969,17.664-25.294,39.454-25.294s39.453,11.325,39.453,25.294-17.664,25.295-39.453,25.295S2239.022,1681.338,2239.022,1667.368Z"/><path class="d" d="M2239.787,1667.368c0-13.7,17.321-24.8,38.689-24.8s38.689,11.1,38.689,24.8-17.322,24.8-38.689,24.8S2239.787,1681.067,2239.787,1667.368Z"/><path class="d" d="M2240.551,1667.368c0-13.428,16.979-24.314,37.925-24.314s37.924,10.886,37.924,24.314-16.979,24.315-37.924,24.315S2240.551,1680.8,2240.551,1667.368Z"/><path class="d" d="M2241.315,1667.368c0-13.158,16.637-23.824,37.161-23.824s37.16,10.666,37.16,23.824-16.637,23.825-37.16,23.825S2241.315,1680.526,2241.315,1667.368Z"/><path class="d" d="M2242.08,1667.368c0-12.887,16.295-23.334,36.4-23.334s36.4,10.447,36.4,23.334-16.3,23.335-36.4,23.335S2242.08,1680.256,2242.08,1667.368Z"/><ellipse cx="35.632" cy="22.845" rx="35.632" ry="22.845" transform="translate(2242.844 1644.523)"/><ellipse cx="34.867" cy="22.355" rx="34.867" ry="22.355" transform="translate(2243.608 1645.013)"/><ellipse cx="34.103" cy="21.865" rx="34.103" ry="21.865" transform="translate(2244.373 1645.503)"/><ellipse cx="33.339" cy="21.375" rx="33.339" ry="21.375" transform="translate(2245.137 1645.994)"/><ellipse cx="32.574" cy="20.885" rx="32.574" ry="20.885" transform="translate(2245.901 1646.484)"/><ellipse cx="31.81" cy="20.395" rx="31.81" ry="20.395" transform="translate(2246.665 1646.974)"/><ellipse cx="31.046" cy="19.905" rx="31.046" ry="19.905" transform="translate(2247.429 1647.464)"/><ellipse cx="30.281" cy="19.415" rx="30.281" ry="19.415" transform="translate(2248.194 1647.954)"/><ellipse cx="29.517" cy="18.925" rx="29.517" ry="18.925" transform="translate(2248.958 1648.444)"/><ellipse cx="28.753" cy="18.435" rx="28.753" ry="18.435" transform="translate(2249.722 1648.934)"/><ellipse cx="27.989" cy="17.944" rx="27.989" ry="17.944" transform="translate(2250.487 1649.424)"/><ellipse cx="27.225" cy="17.454" rx="27.225" ry="17.454" transform="translate(2251.251 1649.914)"/><path class="d" d="M2252.015,1667.368c0-9.369,11.847-16.964,26.461-16.964s26.46,7.595,26.46,16.964-11.847,16.965-26.46,16.965S2252.015,1676.738,2252.015,1667.368Z"/><path class="d" d="M2252.78,1667.368c0-9.1,11.5-16.474,25.7-16.474s25.695,7.376,25.695,16.474-11.5,16.475-25.695,16.475S2252.78,1676.467,2252.78,1667.368Z"/><path class="d" d="M2253.544,1667.368c0-8.828,11.162-15.984,24.932-15.984s24.931,7.156,24.931,15.984-11.162,15.985-24.931,15.985S2253.544,1676.2,2253.544,1667.368Z"/><path class="d" d="M2254.308,1667.368c0-8.557,10.82-15.494,24.168-15.494s24.167,6.937,24.167,15.494-10.82,15.495-24.167,15.495S2254.308,1675.926,2254.308,1667.368Z"/><path class="d" d="M2255.072,1667.368c0-8.287,10.479-15,23.4-15s23.4,6.717,23.4,15-10.478,15.005-23.4,15.005S2255.072,1675.655,2255.072,1667.368Z"/><path class="d" d="M2255.837,1667.368c0-8.016,10.135-14.514,22.639-14.514s22.638,6.5,22.638,14.514-10.135,14.515-22.638,14.515S2255.837,1675.385,2255.837,1667.368Z"/><path class="d" d="M2256.6,1667.368c0-7.745,9.794-14.024,21.875-14.024s21.874,6.279,21.874,14.024-9.794,14.025-21.874,14.025S2256.6,1675.114,2256.6,1667.368Z"/><ellipse cx="21.11" cy="13.535" rx="21.11" ry="13.535" transform="translate(2257.365 1653.834)"/><ellipse cx="20.346" cy="13.045" rx="20.346" ry="13.045" transform="translate(2258.13 1654.324)"/><ellipse cx="19.582" cy="12.555" rx="19.582" ry="12.555" transform="translate(2258.894 1654.814)"/><path class="d" d="M2259.659,1667.368c0-6.663,8.424-12.064,18.817-12.064s18.817,5.4,18.817,12.064-8.425,12.065-18.817,12.065S2259.659,1674.031,2259.659,1667.368Z"/><ellipse cx="18.053" cy="11.574" rx="18.053" ry="11.574" transform="translate(2260.423 1655.794)"/><ellipse cx="17.289" cy="11.084" rx="17.289" ry="11.084" transform="translate(2261.187 1656.284)"/><ellipse cx="16.524" cy="10.594" rx="16.524" ry="10.594" transform="translate(2261.951 1656.774)"/><ellipse cx="15.76" cy="10.104" rx="15.76" ry="10.104" transform="translate(2262.715 1657.264)"/><ellipse cx="14.996" cy="9.614" rx="14.996" ry="9.614" transform="translate(2263.479 1657.754)"/><ellipse cx="14.231" cy="9.124" rx="14.231" ry="9.124" transform="translate(2264.244 1658.244)"/><ellipse cx="13.467" cy="8.634" rx="13.467" ry="8.634" transform="translate(2265.008 1658.734)"/><path class="d" d="M2265.773,1667.368c0-4.5,5.687-8.144,12.7-8.144s12.7,3.646,12.7,8.144-5.687,8.144-12.7,8.144S2265.773,1671.866,2265.773,1667.368Z"/><path class="d" d="M2266.537,1667.368c0-4.227,5.345-7.654,11.939-7.654s11.938,3.427,11.938,7.654-5.345,7.654-11.938,7.654S2266.537,1671.6,2266.537,1667.368Z"/><path class="d" d="M2267.3,1667.368c0-3.956,5-7.164,11.175-7.164s11.174,3.208,11.174,7.164-5,7.165-11.174,7.165S2267.3,1671.325,2267.3,1667.368Z"/><path class="d" d="M2268.066,1667.368c0-3.686,4.66-6.674,10.41-6.674s10.41,2.988,10.41,6.674-4.661,6.675-10.41,6.675S2268.066,1671.054,2268.066,1667.368Z"/><path class="d" d="M2268.83,1667.368c0-3.415,4.318-6.184,9.646-6.184s9.645,2.769,9.645,6.184-4.318,6.185-9.645,6.185S2268.83,1670.784,2268.83,1667.368Z"/><path class="d" d="M2269.594,1667.368c0-3.145,3.977-5.694,8.882-5.694s8.881,2.549,8.881,5.694-3.977,5.695-8.881,5.695S2269.594,1670.513,2269.594,1667.368Z"/><path class="d" d="M2270.358,1667.368c0-2.874,3.634-5.2,8.118-5.2s8.117,2.33,8.117,5.2-3.634,5.2-8.117,5.2S2270.358,1670.243,2270.358,1667.368Z"/><path class="d" d="M2271.122,1667.368c0-2.6,3.293-4.714,7.354-4.714s7.353,2.111,7.353,4.714-3.293,4.715-7.353,4.715S2271.122,1669.972,2271.122,1667.368Z"/><path class="d" d="M2271.887,1667.368c0-2.333,2.95-4.224,6.589-4.224s6.588,1.891,6.588,4.224-2.949,4.225-6.588,4.225S2271.887,1669.7,2271.887,1667.368Z"/><path class="d" d="M2272.651,1667.368c0-2.062,2.608-3.734,5.825-3.734s5.824,1.672,5.824,3.734-2.608,3.735-5.824,3.735S2272.651,1669.431,2272.651,1667.368Z"/><path class="d" d="M2273.415,1667.368c0-1.791,2.266-3.244,5.061-3.244s5.06,1.453,5.06,3.244-2.266,3.245-5.06,3.245S2273.415,1669.16,2273.415,1667.368Z"/><path class="d" d="M2274.18,1667.368c0-1.521,1.923-2.754,4.3-2.754s4.295,1.233,4.295,2.754-1.923,2.755-4.295,2.755S2274.18,1668.889,2274.18,1667.368Z"/><path class="d" d="M2274.944,1667.368c0-1.25,1.581-2.264,3.532-2.264s3.531,1.014,3.531,2.264-1.581,2.264-3.531,2.264S2274.944,1668.619,2274.944,1667.368Z"/><path class="d" d="M2275.708,1667.368c0-.979,1.239-1.774,2.768-1.774s2.767.8,2.767,1.774-1.239,1.774-2.767,1.774S2275.708,1668.348,2275.708,1667.368Z"/></g><circle class="f" cx="90.055" cy="90.055" r="90.055" transform="translate(2192.394 1497.806)"/></g><circle class="g" cx="122.659" cy="122.659" r="122.659" transform="translate(2159.57 1462.275)"/><path class="h" d="M2215.132,1588.988c-18.165,18.039-16.183,33.231,2.642,31.58s20.147-25.762,40.624-24.44,29.064,18.495,48.22,13.541,7.6-15.6,24.11-20.681,35.691-9.044,30.892-18.952-30.892-9.578-41.13,0-33.358,6.6-44.257,2.972-26.752-9.908-37.321-2.312S2215.132,1588.988,2215.132,1588.988Z"/><path class="i" d="M2203.4,1574.569c-6.055-6.959,14.51-42.213,45.908-57.8,18.1-8.983,37.376-10.233,38.312-7.6.812,2.286-12.8,5.7-25.1,19.817-9.326,10.7-7.907,16.1-15.193,25.431C2233.96,1571.548,2208.275,1580.169,2203.4,1574.569Z"/><path class="i" d="M2266.8,1541.71c1.914-13.256,55.483-22.367,61.113-11.186,3.645,7.238-9.932,28.686-30.556,29.738C2281.333,1561.079,2265.7,1549.342,2266.8,1541.71Z"/><path class="j" d="M2223.577,1642.972c-.654,1.606,48.21,40.675,94.761,16.193,35.775-18.815,45.488-57.735,44.588-58.128-.854-.374-12.263,32.745-43.6,49.541C2276.451,1673.562,2224.234,1641.361,2223.577,1642.972Z"/><path class="k" d="M2235.109,1624.44c.145-6.7,29.105-17.727,53.064-6.165,10.543,5.087,23.394,16.129,21.138,21.138C2304.638,1649.786,2234.883,1634.914,2235.109,1624.44Z"/><path class="j" d="M2307.409,1518.131s25.246,23.6,14.772,47.113c26.853-2.663,35.354-3.732,35.354-3.732S2344.664,1516.253,2307.409,1518.131Z"/></g></g></svg>