<svg xmlns="http://www.w3.org/2000/svg" width="43.993" height="59.712" viewBox="0 0 43.993 59.712"><defs><style>.a{fill:#7a9eec;}.b{fill:#6887ec;}.c{fill:#9fb2ec;}.d{fill:#d4cfec;}.e,.f{fill:#fff;font-size:26px;font-family:Muli-Black, Muli;font-weight:800;}.e{stroke:#5b73a5;stroke-width:5px;}</style></defs><g transform="translate(-512.457 -218.705)"><g transform="translate(5.052 -878.762) rotate(11)"><path class="a" d="M717.9,1013.641a3.569,3.569,0,0,0,.561-2.985c-1.124-4.712-2.126-9.438-3.174-14.159-.115-.518-.243-1.035-.365-1.553l-.168.024,1.472,21.043.314.021C716.986,1015.234,717.379,1014.419,717.9,1013.641Z" transform="translate(-0.253 -8.911)"/><path class="b" d="M740.667,1050.26a1,1,0,0,0-.3-.746q-4.169-5.072-8.385-10.127a2.257,2.257,0,0,0-.992-.688c-3.48-1.106-6.984-2.176-10.663-3.314-1.018,1.785-1.985,3.409-2.846,5.057a1.033,1.033,0,0,0,.265,1.008q5.054,5.989,10.183,11.948a2.009,2.009,0,0,0,.867.646c3.293,1.026,6.61,2.017,10.106,3.075C739.535,1054.685,740.126,1052.476,740.667,1050.26Z" transform="translate(-1.223 -31.811)"/><path class="c" d="M719.768,1003.195c3.343,1.068,6.712,2.1,10.347,3.226.09-.509.179-.828.2-1.148.2-3.181.44-6.362.533-9.544a2.668,2.668,0,0,0-.868-1.893c-4.258-4-8.6-7.954-12.927-11.921-.906-.831-1.831-1.652-3-2.7.053.581.047.846.1,1.1q2.448,11.11,4.931,22.217A1.1,1.1,0,0,0,719.768,1003.195Z"/><path class="d" d="M743.1,990.313,716.47,979.866l-.193.126L732.2,994.614Z" transform="translate(-0.807 -0.371)"/><path class="a" d="M741.3,1009.794q-.348,5.363-.613,10.729a1.837,1.837,0,0,0,.377,1.232q4.071,5,8.259,9.951a2.152,2.152,0,0,0,1.329.576c3.015.1,6.036.113,9.053.183.912.021,1.262-.221,1.415-.833.7-2.774,1.553-5.531,2.165-8.313.3-1.36,1.146-2.708-.01-4.156-2.137-2.675-4.047-5.435-6.055-8.158-1.523-2.064-3.052-4.126-4.654-6.29-3.7,1.472-7.27,2.877-10.8,4.322A.923.923,0,0,0,741.3,1009.794Z" transform="translate(-9.66 -14.443)"/><path class="c" d="M775,1051.238c-.524,2.085-1.457,4.172-1.448,6.258.016,3.565.626,7.129,1.018,10.995,2.083-7.051,3.524-13.841,1.336-20.68C775.616,1048.906,775.294,1050.07,775,1051.238Z" transform="translate(-21.581 -38.847)"/><path class="b" d="M754.282,1088.547c-2.392-1.341-4.515-2.969-7.911-3.322Z" transform="translate(-11.722 -60.035)"/><path class="b" d="M765.219,1070.615c-.032-.294-.419-.813-.655-.817-3.434-.053-6.872-.037-10.406-.037-.528,2.118-1.1,4.232-1.541,6.359-.072.351.3.879.723,1.118,1.831,1.038,3.748,2.007,5.648,2.987,2.356,1.215,4.727,2.416,7.092,3.623l.375-.16c-.133-1.515-.259-3.03-.4-4.544C765.79,1076.3,765.532,1073.457,765.219,1070.615Z" transform="translate(-13.984 -51.277)"/></g><text class="e" transform="translate(535 256)"><tspan x="-7.813" y="0">2</tspan></text><text class="f" transform="translate(535 256)"><tspan x="-7.813" y="0">2</tspan></text></g></svg>